<svg xmlns="http://www.w3.org/2000/svg" xmlns:xlink="http://www.w3.org/1999/xlink" contentStyleType="text/css" data-diagram-type="SEQUENCE" height="999px" preserveAspectRatio="none" style="width:542px;height:999px;background:#FFFFFF;" version="1.1" viewBox="0 0 542 999" width="542px" zoomAndPan="magnify"><title>Data Flow</title><defs/><g><text fill="#000000" font-family="sans-serif" font-size="14" font-weight="bold" lengthAdjust="spacing" textLength="66.1172" x="239.1362" y="29.5332">Data Flow</text><g><title>CLI</title><rect fill="#FFFFFF" height="746.1641" style="stroke:#181818;stroke-width:1;" width="10" x="196.3892" y="153.5703"/></g><g><title>Method</title><rect fill="#FFFFFF" height="425.3516" style="stroke:#181818;stroke-width:1;" width="10" x="363.4126" y="357.3281"/></g><rect fill="none" height="294.2969" style="stroke:#000000;stroke-width:1.5;" width="207.3252" x="328.0645" y="459.0313"/><g><title>User</title><rect fill="#000000" fill-opacity="0.00000" height="796.5156" width="8" x="18.7793" y="121.2188"/><line style="stroke:#181818;stroke-width:0.5;stroke-dasharray:5.0,5.0;" x1="22" x2="22" y1="121.2188" y2="917.7344"/></g><g><title>CLI</title><rect fill="#000000" fill-opacity="0.00000" height="796.5156" width="8" x="197.3892" y="121.2188"/><line style="stroke:#181818;stroke-width:0.5;stroke-dasharray:5.0,5.0;" x1="200.4961" x2="200.4961" y1="121.2188" y2="917.7344"/></g><g><title>Method</title><rect fill="#000000" fill-opacity="0.00000" height="796.5156" width="8" x="364.4126" y="121.2188"/><line style="stroke:#181818;stroke-width:0.5;stroke-dasharray:5.0,5.0;" x1="368.0645" x2="368.0645" y1="121.2188" y2="917.7344"/></g><g class="participant participant-head" data-participant="User"><text fill="#000000" font-family="sans-serif" font-size="14" lengthAdjust="spacing" textLength="29.5586" x="5" y="118.1426">User</text><ellipse cx="22.7793" cy="52.1094" fill="#E2E2F0" rx="8" ry="8" style="stroke:#181818;stroke-width:0.5;"/><path d="M22.7793,60.1094 L22.7793,87.1094 M9.7793,68.1094 L35.7793,68.1094 M22.7793,87.1094 L9.7793,102.1094 M22.7793,87.1094 L35.7793,102.1094" fill="none" style="stroke:#181818;stroke-width:0.5;"/></g><g class="participant participant-tail" data-participant="User"><text fill="#000000" font-family="sans-serif" font-size="14" lengthAdjust="spacing" textLength="29.5586" x="5" y="931.2676">User</text><ellipse cx="22.7793" cy="942.8438" fill="#E2E2F0" rx="8" ry="8" style="stroke:#181818;stroke-width:0.5;"/><path d="M22.7793,950.8438 L22.7793,977.8438 M9.7793,958.8438 L35.7793,958.8438 M22.7793,977.8438 L9.7793,992.8438 M22.7793,977.8438 L35.7793,992.8438" fill="none" style="stroke:#181818;stroke-width:0.5;"/></g><g class="participant participant-head" data-participant="CLI"><rect fill="#E2E2F0" height="31.6094" rx="2.5" ry="2.5" style="stroke:#181818;stroke-width:0.5;" width="35.7861" x="183.4961" y="88.6094"/><text fill="#000000" font-family="sans-serif" font-size="14" lengthAdjust="spacing" textLength="21.7861" x="190.4961" y="110.1426">CLI</text></g><g class="participant participant-tail" data-participant="CLI"><rect fill="#E2E2F0" height="31.6094" rx="2.5" ry="2.5" style="stroke:#181818;stroke-width:0.5;" width="35.7861" x="183.4961" y="916.7344"/><text fill="#000000" font-family="sans-serif" font-size="14" lengthAdjust="spacing" textLength="21.7861" x="190.4961" y="938.2676">CLI</text></g><g class="participant participant-head" data-participant="Method"><rect fill="#E2E2F0" height="31.6094" rx="2.5" ry="2.5" style="stroke:#181818;stroke-width:0.5;" width="60.6963" x="338.0645" y="88.6094"/><text fill="#000000" font-family="sans-serif" font-size="14" lengthAdjust="spacing" textLength="46.6963" x="345.0645" y="110.1426">Method</text></g><g class="participant participant-tail" data-participant="Method"><rect fill="#E2E2F0" height="31.6094" rx="2.5" ry="2.5" style="stroke:#181818;stroke-width:0.5;" width="60.6963" x="338.0645" y="916.7344"/><text fill="#000000" font-family="sans-serif" font-size="14" lengthAdjust="spacing" textLength="46.6963" x="345.0645" y="938.2676">Method</text></g><g><title>CLI</title><rect fill="#FFFFFF" height="746.1641" style="stroke:#181818;stroke-width:1;" width="10" x="196.3892" y="153.5703"/></g><g><title>Method</title><rect fill="#FFFFFF" height="425.3516" style="stroke:#181818;stroke-width:1;" width="10" x="363.4126" y="357.3281"/></g><g class="message" data-participant-1="User" data-participant-2="CLI"><polygon fill="#181818" points="184.3892,149.5703,194.3892,153.5703,184.3892,157.5703,188.3892,153.5703" style="stroke:#181818;stroke-width:1;"/><line style="stroke:#181818;stroke-width:1;" x1="22.7793" x2="190.3892" y1="153.5703" y2="153.5703"/><text fill="#000000" font-family="sans-serif" font-size="13" lengthAdjust="spacing" textLength="154.6099" x="29.7793" y="148.7139">Command (embed/extract)</text></g><g class="message" data-participant-1="CLI" data-participant-2="CLI"><line style="stroke:#181818;stroke-width:1;" x1="206.3892" x2="248.3892" y1="183.9219" y2="183.9219"/><line style="stroke:#181818;stroke-width:1;" x1="248.3892" x2="248.3892" y1="183.9219" y2="196.9219"/><line style="stroke:#181818;stroke-width:1;" x1="207.3892" x2="248.3892" y1="196.9219" y2="196.9219"/><polygon fill="#181818" points="217.3892,192.9219,207.3892,196.9219,217.3892,200.9219,213.3892,196.9219" style="stroke:#181818;stroke-width:1;"/><text fill="#000000" font-family="sans-serif" font-size="13" lengthAdjust="spacing" textLength="98.9917" x="213.3892" y="179.0654">Parse arguments</text></g><g class="message" data-participant-1="CLI" data-participant-2="CLI"><line style="stroke:#181818;stroke-width:1;" x1="206.3892" x2="248.3892" y1="227.2734" y2="227.2734"/><line style="stroke:#181818;stroke-width:1;" x1="248.3892" x2="248.3892" y1="227.2734" y2="240.2734"/><line style="stroke:#181818;stroke-width:1;" x1="207.3892" x2="248.3892" y1="240.2734" y2="240.2734"/><polygon fill="#181818" points="217.3892,236.2734,207.3892,240.2734,217.3892,244.2734,213.3892,240.2734" style="stroke:#181818;stroke-width:1;"/><text fill="#000000" font-family="sans-serif" font-size="13" lengthAdjust="spacing" textLength="105.5107" x="213.3892" y="222.417">Validate input files</text></g><g class="message" data-participant-1="CLI" data-participant-2="CLI"><line style="stroke:#181818;stroke-width:1;" x1="206.3892" x2="248.3892" y1="270.625" y2="270.625"/><line style="stroke:#181818;stroke-width:1;" x1="248.3892" x2="248.3892" y1="270.625" y2="283.625"/><line style="stroke:#181818;stroke-width:1;" x1="207.3892" x2="248.3892" y1="283.625" y2="283.625"/><polygon fill="#181818" points="217.3892,279.625,207.3892,283.625,217.3892,287.625,213.3892,283.625" style="stroke:#181818;stroke-width:1;"/><text fill="#000000" font-family="sans-serif" font-size="13" lengthAdjust="spacing" textLength="112.728" x="213.3892" y="265.7686">Read source image</text></g><g class="message" data-participant-1="CLI" data-participant-2="CLI"><line style="stroke:#181818;stroke-width:1;" x1="206.3892" x2="248.3892" y1="313.9766" y2="313.9766"/><line style="stroke:#181818;stroke-width:1;" x1="248.3892" x2="248.3892" y1="313.9766" y2="326.9766"/><line style="stroke:#181818;stroke-width:1;" x1="207.3892" x2="248.3892" y1="326.9766" y2="326.9766"/><polygon fill="#181818" points="217.3892,322.9766,207.3892,326.9766,217.3892,330.9766,213.3892,326.9766" style="stroke:#181818;stroke-width:1;"/><text fill="#000000" font-family="sans-serif" font-size="13" lengthAdjust="spacing" textLength="106.939" x="213.3892" y="309.1201">Determine method</text></g><g class="message" data-participant-1="CLI" data-participant-2="Method"><polygon fill="#181818" points="351.4126,353.3281,361.4126,357.3281,351.4126,361.3281,355.4126,357.3281" style="stroke:#181818;stroke-width:1;"/><line style="stroke:#181818;stroke-width:1;" x1="206.3892" x2="357.4126" y1="357.3281" y2="357.3281"/><text fill="#000000" font-family="sans-serif" font-size="13" lengthAdjust="spacing" textLength="138.0234" x="213.3892" y="352.4717">Create method instance</text></g><g class="message" data-participant-1="Method" data-participant-2="Method"><line style="stroke:#181818;stroke-width:1;" x1="373.4126" x2="415.4126" y1="387.6797" y2="387.6797"/><line style="stroke:#181818;stroke-width:1;" x1="415.4126" x2="415.4126" y1="387.6797" y2="400.6797"/><line style="stroke:#181818;stroke-width:1;" x1="374.4126" x2="415.4126" y1="400.6797" y2="400.6797"/><polygon fill="#181818" points="384.4126,396.6797,374.4126,400.6797,384.4126,404.6797,380.4126,400.6797" style="stroke:#181818;stroke-width:1;"/><text fill="#000000" font-family="sans-serif" font-size="13" lengthAdjust="spacing" textLength="88.1499" x="380.4126" y="382.8232">Check capacity</text></g><g class="message" data-participant-1="Method" data-participant-2="Method"><line style="stroke:#181818;stroke-width:1;" x1="373.4126" x2="415.4126" y1="431.0313" y2="431.0313"/><line style="stroke:#181818;stroke-width:1;" x1="415.4126" x2="415.4126" y1="431.0313" y2="444.0313"/><line style="stroke:#181818;stroke-width:1;" x1="374.4126" x2="415.4126" y1="444.0313" y2="444.0313"/><polygon fill="#181818" points="384.4126,440.0313,374.4126,444.0313,384.4126,448.0313,380.4126,444.0313" style="stroke:#181818;stroke-width:1;"/><text fill="#000000" font-family="sans-serif" font-size="13" lengthAdjust="spacing" textLength="75.1626" x="380.4126" y="426.1748">Prepare data</text></g><path d="M328.0645,459.0313 L388.2354,459.0313 L388.2354,467.3828 L378.2354,477.3828 L328.0645,477.3828 L328.0645,459.0313" fill="#EEEEEE" style="stroke:#000000;stroke-width:1.5;"/><rect fill="none" height="294.2969" style="stroke:#000000;stroke-width:1.5;" width="207.3252" x="328.0645" y="459.0313"/><text fill="#000000" font-family="sans-serif" font-size="13" font-weight="bold" lengthAdjust="spacing" textLength="15.1709" x="343.0645" y="473.5264">alt</text><text fill="#000000" font-family="sans-serif" font-size="11" font-weight="bold" lengthAdjust="spacing" textLength="44" x="403.2354" y="472.4502">[Embed]</text><g class="message" data-participant-1="Method" data-participant-2="Method"><line style="stroke:#181818;stroke-width:1;" x1="373.4126" x2="415.4126" y1="499.7344" y2="499.7344"/><line style="stroke:#181818;stroke-width:1;" x1="415.4126" x2="415.4126" y1="499.7344" y2="512.7344"/><line style="stroke:#181818;stroke-width:1;" x1="374.4126" x2="415.4126" y1="512.7344" y2="512.7344"/><polygon fill="#181818" points="384.4126,508.7344,374.4126,512.7344,384.4126,516.7344,380.4126,512.7344" style="stroke:#181818;stroke-width:1;"/><text fill="#000000" font-family="sans-serif" font-size="13" lengthAdjust="spacing" textLength="80.2217" x="380.4126" y="494.8779">Read data file</text></g><g class="message" data-participant-1="Method" data-participant-2="Method"><line style="stroke:#181818;stroke-width:1;" x1="373.4126" x2="415.4126" y1="543.0859" y2="543.0859"/><line style="stroke:#181818;stroke-width:1;" x1="415.4126" x2="415.4126" y1="543.0859" y2="556.0859"/><line style="stroke:#181818;stroke-width:1;" x1="374.4126" x2="415.4126" y1="556.0859" y2="556.0859"/><polygon fill="#181818" points="384.4126,552.0859,374.4126,556.0859,384.4126,560.0859,380.4126,556.0859" style="stroke:#181818;stroke-width:1;"/><text fill="#000000" font-family="sans-serif" font-size="13" lengthAdjust="spacing" textLength="70.1035" x="380.4126" y="538.2295">Embed data</text></g><g class="message" data-participant-1="Method" data-participant-2="Method"><line style="stroke:#181818;stroke-width:1;" x1="373.4126" x2="415.4126" y1="586.4375" y2="586.4375"/><line style="stroke:#181818;stroke-width:1;" x1="415.4126" x2="415.4126" y1="586.4375" y2="599.4375"/><line style="stroke:#181818;stroke-width:1;" x1="374.4126" x2="415.4126" y1="599.4375" y2="599.4375"/><polygon fill="#181818" points="384.4126,595.4375,374.4126,599.4375,384.4126,603.4375,380.4126,599.4375" style="stroke:#181818;stroke-width:1;"/><text fill="#000000" font-family="sans-serif" font-size="13" lengthAdjust="spacing" textLength="129.3525" x="380.4126" y="581.5811">Generate stego-image</text></g><line style="stroke:#000000;stroke-width:1;stroke-dasharray:2.0,2.0;" x1="328.0645" x2="535.3896" y1="608.4375" y2="608.4375"/><text fill="#000000" font-family="sans-serif" font-size="11" font-weight="bold" lengthAdjust="spacing" textLength="44.623" x="333.0645" y="619.8564">[Extract]</text><g class="message" data-participant-1="Method" data-participant-2="Method"><line style="stroke:#181818;stroke-width:1;" x1="373.4126" x2="415.4126" y1="645.625" y2="645.625"/><line style="stroke:#181818;stroke-width:1;" x1="415.4126" x2="415.4126" y1="645.625" y2="658.625"/><line style="stroke:#181818;stroke-width:1;" x1="374.4126" x2="415.4126" y1="658.625" y2="658.625"/><polygon fill="#181818" points="384.4126,654.625,374.4126,658.625,384.4126,662.625,380.4126,658.625" style="stroke:#181818;stroke-width:1;"/><text fill="#000000" font-family="sans-serif" font-size="13" lengthAdjust="spacing" textLength="69.3672" x="380.4126" y="640.7686">Extract data</text></g><g class="message" data-participant-1="Method" data-participant-2="Method"><line style="stroke:#181818;stroke-width:1;" x1="373.4126" x2="415.4126" y1="688.9766" y2="688.9766"/><line style="stroke:#181818;stroke-width:1;" x1="415.4126" x2="415.4126" y1="688.9766" y2="701.9766"/><line style="stroke:#181818;stroke-width:1;" x1="374.4126" x2="415.4126" y1="701.9766" y2="701.9766"/><polygon fill="#181818" points="384.4126,697.9766,374.4126,701.9766,384.4126,705.9766,380.4126,701.9766" style="stroke:#181818;stroke-width:1;"/><text fill="#000000" font-family="sans-serif" font-size="13" lengthAdjust="spacing" textLength="132.9771" x="380.4126" y="684.1201">Validate extracted data</text></g><g class="message" data-participant-1="Method" data-participant-2="Method"><line style="stroke:#181818;stroke-width:1;" x1="373.4126" x2="415.4126" y1="732.3281" y2="732.3281"/><line style="stroke:#181818;stroke-width:1;" x1="415.4126" x2="415.4126" y1="732.3281" y2="745.3281"/><line style="stroke:#181818;stroke-width:1;" x1="374.4126" x2="415.4126" y1="745.3281" y2="745.3281"/><polygon fill="#181818" points="384.4126,741.3281,374.4126,745.3281,384.4126,749.3281,380.4126,745.3281" style="stroke:#181818;stroke-width:1;"/><text fill="#000000" font-family="sans-serif" font-size="13" lengthAdjust="spacing" textLength="93.958" x="380.4126" y="727.4717">Generate output</text></g><g class="message" data-participant-1="Method" data-participant-2="CLI"><polygon fill="#181818" points="217.3892,778.6797,207.3892,782.6797,217.3892,786.6797,213.3892,782.6797" style="stroke:#181818;stroke-width:1;"/><line style="stroke:#181818;stroke-width:1;stroke-dasharray:2.0,2.0;" x1="211.3892" x2="367.4126" y1="782.6797" y2="782.6797"/><text fill="#000000" font-family="sans-serif" font-size="13" lengthAdjust="spacing" textLength="74.4199" x="223.3892" y="777.8232">Return result</text></g><g class="message" data-participant-1="CLI" data-participant-2="CLI"><line style="stroke:#181818;stroke-width:1;" x1="206.3892" x2="248.3892" y1="813.0313" y2="813.0313"/><line style="stroke:#181818;stroke-width:1;" x1="248.3892" x2="248.3892" y1="813.0313" y2="826.0313"/><line style="stroke:#181818;stroke-width:1;" x1="207.3892" x2="248.3892" y1="826.0313" y2="826.0313"/><polygon fill="#181818" points="217.3892,822.0313,207.3892,826.0313,217.3892,830.0313,213.3892,826.0313" style="stroke:#181818;stroke-width:1;"/><text fill="#000000" font-family="sans-serif" font-size="13" lengthAdjust="spacing" textLength="89.6162" x="213.3892" y="808.1748">Save output file</text></g><g class="message" data-participant-1="CLI" data-participant-2="CLI"><line style="stroke:#181818;stroke-width:1;" x1="206.3892" x2="248.3892" y1="856.3828" y2="856.3828"/><line style="stroke:#181818;stroke-width:1;" x1="248.3892" x2="248.3892" y1="856.3828" y2="869.3828"/><line style="stroke:#181818;stroke-width:1;" x1="207.3892" x2="248.3892" y1="869.3828" y2="869.3828"/><polygon fill="#181818" points="217.3892,865.3828,207.3892,869.3828,217.3892,873.3828,213.3892,869.3828" style="stroke:#181818;stroke-width:1;"/><text fill="#000000" font-family="sans-serif" font-size="13" lengthAdjust="spacing" textLength="86.709" x="213.3892" y="851.5264">Show progress</text></g><g class="message" data-participant-1="CLI" data-participant-2="User"><polygon fill="#181818" points="33.7793,895.7344,23.7793,899.7344,33.7793,903.7344,29.7793,899.7344" style="stroke:#181818;stroke-width:1;"/><line style="stroke:#181818;stroke-width:1;stroke-dasharray:2.0,2.0;" x1="27.7793" x2="200.3892" y1="899.7344" y2="899.7344"/><text fill="#000000" font-family="sans-serif" font-size="13" lengthAdjust="spacing" textLength="89.5908" x="39.7793" y="894.8779">Return success</text></g><!--SRC=[ZLBBJWCn3BpdAwoUu51nvy2bBGW9f0e4TvCrsuXDidAS5luUPzFNgYrY3vj8CnwFnn4d7S4S1U6-YnjZq4faU4l4faSMPrsFGM0oUtgS02RGSmmyawnYCs3rQaofXkbTuTx2B7gFeO4hyX_KtD2tiFQuBetS6eK6HQE_VSKIEH4WjzbJa3J2th5pJQboeSy2dwwZCU65i84KCrlbU6nfXCv9YBqB1BvwtOBLkPfbAk8Lr1v9C5WwUDrDMCzHvOhi5rZiqJhvEKDOCcbk1EeUDUPEO542CQ3VANiOer274I-G1e4gU9xmG86u-4v2RPpMFAZJT1Tr3PU4A_gNz7uHsuN-qqZCedip58v2FAnECWTWIhaJqz19wiURVCNrJgr6D09NSGCznrQrjiz3eV8izrrIjhQ0HstAG_m5]--></g></svg>