<svg xmlns="http://www.w3.org/2000/svg" xmlns:xlink="http://www.w3.org/1999/xlink" contentStyleType="text/css" data-diagram-type="SEQUENCE" height="776px" preserveAspectRatio="none" style="width:467px;height:776px;background:#FFFFFF;" version="1.1" viewBox="0 0 467 776" width="467px" zoomAndPan="magnify"><title>Lossless (LSB &amp; QIM)</title><defs/><g><text fill="#000000" font-family="sans-serif" font-size="14" font-weight="bold" lengthAdjust="spacing" textLength="145.4688" x="162.1594" y="29.5332">Lossless (LSB &amp; QIM)</text><rect fill="none" height="240.2969" style="stroke:#000000;stroke-width:1.5;" width="250.8633" x="209.9243" y="153.9219"/><rect fill="none" height="223.9453" style="stroke:#000000;stroke-width:1.5;" width="242.1543" x="209.9243" y="468.9219"/><g><title>Image</title><rect fill="#000000" fill-opacity="0.00000" height="664" width="8" x="27.4551" y="76.2188"/><line style="stroke:#181818;stroke-width:0.5;stroke-dasharray:5.0,5.0;" x1="31" x2="31" y1="76.2188" y2="740.2188"/></g><g><title>Data</title><rect fill="#000000" fill-opacity="0.00000" height="664" width="8" x="85.6963" y="76.2188"/><line style="stroke:#181818;stroke-width:0.5;stroke-dasharray:5.0,5.0;" x1="88.9102" x2="88.9102" y1="76.2188" y2="740.2188"/></g><g><title>Method</title><rect fill="#000000" fill-opacity="0.00000" height="664" width="8" x="246.2725" y="76.2188"/><line style="stroke:#181818;stroke-width:0.5;stroke-dasharray:5.0,5.0;" x1="249.9243" x2="249.9243" y1="76.2188" y2="740.2188"/></g><g class="participant participant-head" data-participant="Image"><rect fill="#E2E2F0" height="31.6094" rx="2.5" ry="2.5" style="stroke:#181818;stroke-width:0.5;" width="52.9102" x="5" y="43.6094"/><text fill="#000000" font-family="sans-serif" font-size="14" lengthAdjust="spacing" textLength="38.9102" x="12" y="65.1426">Image</text></g><g class="participant participant-tail" data-participant="Image"><rect fill="#E2E2F0" height="31.6094" rx="2.5" ry="2.5" style="stroke:#181818;stroke-width:0.5;" width="52.9102" x="5" y="739.2188"/><text fill="#000000" font-family="sans-serif" font-size="14" lengthAdjust="spacing" textLength="38.9102" x="12" y="760.752">Image</text></g><g class="participant participant-head" data-participant="Data"><rect fill="#E2E2F0" height="31.6094" rx="2.5" ry="2.5" style="stroke:#181818;stroke-width:0.5;" width="43.5723" x="67.9102" y="43.6094"/><text fill="#000000" font-family="sans-serif" font-size="14" lengthAdjust="spacing" textLength="29.5723" x="74.9102" y="65.1426">Data</text></g><g class="participant participant-tail" data-participant="Data"><rect fill="#E2E2F0" height="31.6094" rx="2.5" ry="2.5" style="stroke:#181818;stroke-width:0.5;" width="43.5723" x="67.9102" y="739.2188"/><text fill="#000000" font-family="sans-serif" font-size="14" lengthAdjust="spacing" textLength="29.5723" x="74.9102" y="760.752">Data</text></g><g class="participant participant-head" data-participant="Method"><rect fill="#E2E2F0" height="31.6094" rx="2.5" ry="2.5" style="stroke:#181818;stroke-width:0.5;" width="60.6963" x="219.9243" y="43.6094"/><text fill="#000000" font-family="sans-serif" font-size="14" lengthAdjust="spacing" textLength="46.6963" x="226.9243" y="65.1426">Method</text></g><g class="participant participant-tail" data-participant="Method"><rect fill="#E2E2F0" height="31.6094" rx="2.5" ry="2.5" style="stroke:#181818;stroke-width:0.5;" width="60.6963" x="219.9243" y="739.2188"/><text fill="#000000" font-family="sans-serif" font-size="14" lengthAdjust="spacing" textLength="46.6963" x="226.9243" y="760.752">Method</text></g><g class="message" data-participant-1="Data" data-participant-2="Method"><polygon fill="#181818" points="238.2725,104.5703,248.2725,108.5703,238.2725,112.5703,242.2725,108.5703" style="stroke:#181818;stroke-width:1;"/><line style="stroke:#181818;stroke-width:1;" x1="89.6963" x2="244.2725" y1="108.5703" y2="108.5703"/><text fill="#000000" font-family="sans-serif" font-size="13" lengthAdjust="spacing" textLength="81.6689" x="96.6963" y="103.7139">Input data bits</text></g><g class="message" data-participant-1="Image" data-participant-2="Method"><polygon fill="#181818" points="238.2725,134.9219,248.2725,138.9219,238.2725,142.9219,242.2725,138.9219" style="stroke:#181818;stroke-width:1;"/><line style="stroke:#181818;stroke-width:1;" x1="31.4551" x2="244.2725" y1="138.9219" y2="138.9219"/><text fill="#000000" font-family="sans-serif" font-size="13" lengthAdjust="spacing" textLength="104.7808" x="38.4551" y="134.0654">Input image pixels</text></g><path d="M209.9243,153.9219 L270.0952,153.9219 L270.0952,162.2734 L260.0952,172.2734 L209.9243,172.2734 L209.9243,153.9219" fill="#EEEEEE" style="stroke:#000000;stroke-width:1.5;"/><rect fill="none" height="240.2969" style="stroke:#000000;stroke-width:1.5;" width="250.8633" x="209.9243" y="153.9219"/><text fill="#000000" font-family="sans-serif" font-size="13" font-weight="bold" lengthAdjust="spacing" textLength="15.1709" x="224.9243" y="168.417">alt</text><text fill="#000000" font-family="sans-serif" font-size="11" font-weight="bold" lengthAdjust="spacing" textLength="71.4839" x="285.0952" y="167.3408">[LSB Method]</text><g class="message" data-participant-1="Method" data-participant-2="Method"><line style="stroke:#181818;stroke-width:1;" x1="250.2725" x2="292.2725" y1="194.625" y2="194.625"/><line style="stroke:#181818;stroke-width:1;" x1="292.2725" x2="292.2725" y1="194.625" y2="207.625"/><line style="stroke:#181818;stroke-width:1;" x1="251.2725" x2="292.2725" y1="207.625" y2="207.625"/><polygon fill="#181818" points="261.2725,203.625,251.2725,207.625,261.2725,211.625,257.2725,207.625" style="stroke:#181818;stroke-width:1;"/><text fill="#000000" font-family="sans-serif" font-size="13" lengthAdjust="spacing" textLength="106.9453" x="257.2725" y="189.7686">Process each byte</text></g><g class="message" data-participant-1="Method" data-participant-2="Method"><line style="stroke:#181818;stroke-width:1;" x1="250.2725" x2="292.2725" y1="254.3281" y2="254.3281"/><line style="stroke:#181818;stroke-width:1;" x1="292.2725" x2="292.2725" y1="254.3281" y2="267.3281"/><line style="stroke:#181818;stroke-width:1;" x1="251.2725" x2="292.2725" y1="267.3281" y2="267.3281"/><polygon fill="#181818" points="261.2725,263.3281,251.2725,267.3281,261.2725,271.3281,257.2725,267.3281" style="stroke:#181818;stroke-width:1;"/><text fill="#000000" font-family="sans-serif" font-size="13" lengthAdjust="spacing" textLength="177.0298" x="257.2725" y="233.1201">Replace N least significant bits</text><text fill="#000000" font-family="sans-serif" font-size="13" lengthAdjust="spacing" textLength="159.3198" x="257.2725" y="249.4717">with data bits (N = strength)</text></g><line style="stroke:#000000;stroke-width:1;stroke-dasharray:2.0,2.0;" x1="209.9243" x2="460.7876" y1="276.3281" y2="276.3281"/><text fill="#000000" font-family="sans-serif" font-size="11" font-weight="bold" lengthAdjust="spacing" textLength="70.2593" x="214.9243" y="287.7471">[QIM Method]</text><g class="message" data-participant-1="Method" data-participant-2="Method"><line style="stroke:#181818;stroke-width:1;" x1="250.2725" x2="292.2725" y1="313.5156" y2="313.5156"/><line style="stroke:#181818;stroke-width:1;" x1="292.2725" x2="292.2725" y1="313.5156" y2="326.5156"/><line style="stroke:#181818;stroke-width:1;" x1="251.2725" x2="292.2725" y1="326.5156" y2="326.5156"/><polygon fill="#181818" points="261.2725,322.5156,251.2725,326.5156,261.2725,330.5156,257.2725,326.5156" style="stroke:#181818;stroke-width:1;"/><text fill="#000000" font-family="sans-serif" font-size="13" lengthAdjust="spacing" textLength="158.2598" x="257.2725" y="308.6592">Process each pixel channel</text></g><g class="message" data-participant-1="Method" data-participant-2="Method"><line style="stroke:#181818;stroke-width:1;" x1="250.2725" x2="292.2725" y1="373.2188" y2="373.2188"/><line style="stroke:#181818;stroke-width:1;" x1="292.2725" x2="292.2725" y1="373.2188" y2="386.2188"/><line style="stroke:#181818;stroke-width:1;" x1="251.2725" x2="292.2725" y1="386.2188" y2="386.2188"/><polygon fill="#181818" points="261.2725,382.2188,251.2725,386.2188,261.2725,390.2188,257.2725,386.2188" style="stroke:#181818;stroke-width:1;"/><text fill="#000000" font-family="sans-serif" font-size="13" lengthAdjust="spacing" textLength="148.1479" x="257.2725" y="352.0107">Quantize value to nearest</text><text fill="#000000" font-family="sans-serif" font-size="13" lengthAdjust="spacing" textLength="191.5151" x="257.2725" y="368.3623">representative value based on bit</text></g><g class="message" data-participant-1="Method" data-participant-2="Image"><polygon fill="#181818" points="42.4551,419.5703,32.4551,423.5703,42.4551,427.5703,38.4551,423.5703" style="stroke:#181818;stroke-width:1;"/><line style="stroke:#181818;stroke-width:1;" x1="36.4551" x2="249.2725" y1="423.5703" y2="423.5703"/><text fill="#000000" font-family="sans-serif" font-size="13" lengthAdjust="spacing" textLength="88.1563" x="48.4551" y="418.7139">Modified image</text></g><g class="message" data-participant-1="Image" data-participant-2="Method"><polygon fill="#181818" points="238.2725,449.9219,248.2725,453.9219,238.2725,457.9219,242.2725,453.9219" style="stroke:#181818;stroke-width:1;"/><line style="stroke:#181818;stroke-width:1;" x1="31.4551" x2="244.2725" y1="453.9219" y2="453.9219"/><text fill="#000000" font-family="sans-serif" font-size="13" lengthAdjust="spacing" textLength="104.0635" x="38.4551" y="449.0654">Input stego-image</text></g><path d="M209.9243,468.9219 L270.0952,468.9219 L270.0952,477.2734 L260.0952,487.2734 L209.9243,487.2734 L209.9243,468.9219" fill="#EEEEEE" style="stroke:#000000;stroke-width:1.5;"/><rect fill="none" height="223.9453" style="stroke:#000000;stroke-width:1.5;" width="242.1543" x="209.9243" y="468.9219"/><text fill="#000000" font-family="sans-serif" font-size="13" font-weight="bold" lengthAdjust="spacing" textLength="15.1709" x="224.9243" y="483.417">alt</text><text fill="#000000" font-family="sans-serif" font-size="11" font-weight="bold" lengthAdjust="spacing" textLength="71.4839" x="285.0952" y="482.3408">[LSB Method]</text><g class="message" data-participant-1="Method" data-participant-2="Method"><line style="stroke:#181818;stroke-width:1;" x1="250.2725" x2="292.2725" y1="509.625" y2="509.625"/><line style="stroke:#181818;stroke-width:1;" x1="292.2725" x2="292.2725" y1="509.625" y2="522.625"/><line style="stroke:#181818;stroke-width:1;" x1="251.2725" x2="292.2725" y1="522.625" y2="522.625"/><polygon fill="#181818" points="261.2725,518.625,251.2725,522.625,261.2725,526.625,257.2725,522.625" style="stroke:#181818;stroke-width:1;"/><text fill="#000000" font-family="sans-serif" font-size="13" lengthAdjust="spacing" textLength="106.9453" x="257.2725" y="504.7686">Process each byte</text></g><g class="message" data-participant-1="Method" data-participant-2="Method"><line style="stroke:#181818;stroke-width:1;" x1="250.2725" x2="292.2725" y1="552.9766" y2="552.9766"/><line style="stroke:#181818;stroke-width:1;" x1="292.2725" x2="292.2725" y1="552.9766" y2="565.9766"/><line style="stroke:#181818;stroke-width:1;" x1="251.2725" x2="292.2725" y1="565.9766" y2="565.9766"/><polygon fill="#181818" points="261.2725,561.9766,251.2725,565.9766,261.2725,569.9766,257.2725,565.9766" style="stroke:#181818;stroke-width:1;"/><text fill="#000000" font-family="sans-serif" font-size="13" lengthAdjust="spacing" textLength="169.7871" x="257.2725" y="548.1201">Extract N least significant bits</text></g><line style="stroke:#000000;stroke-width:1;stroke-dasharray:2.0,2.0;" x1="209.9243" x2="452.0786" y1="574.9766" y2="574.9766"/><text fill="#000000" font-family="sans-serif" font-size="11" font-weight="bold" lengthAdjust="spacing" textLength="70.2593" x="214.9243" y="586.3955">[QIM Method]</text><g class="message" data-participant-1="Method" data-participant-2="Method"><line style="stroke:#181818;stroke-width:1;" x1="250.2725" x2="292.2725" y1="612.1641" y2="612.1641"/><line style="stroke:#181818;stroke-width:1;" x1="292.2725" x2="292.2725" y1="612.1641" y2="625.1641"/><line style="stroke:#181818;stroke-width:1;" x1="251.2725" x2="292.2725" y1="625.1641" y2="625.1641"/><polygon fill="#181818" points="261.2725,621.1641,251.2725,625.1641,261.2725,629.1641,257.2725,625.1641" style="stroke:#181818;stroke-width:1;"/><text fill="#000000" font-family="sans-serif" font-size="13" lengthAdjust="spacing" textLength="158.2598" x="257.2725" y="607.3076">Process each pixel channel</text></g><g class="message" data-participant-1="Method" data-participant-2="Method"><line style="stroke:#181818;stroke-width:1;" x1="250.2725" x2="292.2725" y1="671.8672" y2="671.8672"/><line style="stroke:#181818;stroke-width:1;" x1="292.2725" x2="292.2725" y1="671.8672" y2="684.8672"/><line style="stroke:#181818;stroke-width:1;" x1="251.2725" x2="292.2725" y1="684.8672" y2="684.8672"/><polygon fill="#181818" points="261.2725,680.8672,251.2725,684.8672,261.2725,688.8672,257.2725,684.8672" style="stroke:#181818;stroke-width:1;"/><text fill="#000000" font-family="sans-serif" font-size="13" lengthAdjust="spacing" textLength="182.8062" x="257.2725" y="650.6592">Determine which representative</text><text fill="#000000" font-family="sans-serif" font-size="13" lengthAdjust="spacing" textLength="88.1499" x="257.2725" y="667.0107">value is closest</text></g><g class="message" data-participant-1="Method" data-participant-2="Data"><polygon fill="#181818" points="100.6963,718.2188,90.6963,722.2188,100.6963,726.2188,96.6963,722.2188" style="stroke:#181818;stroke-width:1;"/><line style="stroke:#181818;stroke-width:1;" x1="94.6963" x2="249.2725" y1="722.2188" y2="722.2188"/><text fill="#000000" font-family="sans-serif" font-size="13" lengthAdjust="spacing" textLength="136.5762" x="106.6963" y="717.3623">Reconstructed data bits</text></g><!--SRC=[jPAnJiD038RtUmgB0RL3Nw0I3AWCbTgAmjh5lPZ4qjKNnKvRU7hkhaMbe0n8aEdF-VVbznSRMo1OHDL0gZ1Ql3p0BQpdox5pBNR6dbiKWvlv3ckw0LGewheuGyDIo-Awj2HhObMA9-bSDi7a_lm-XRcqlK6LJxTiwie7VXgu7BTyfA3EOJ38OS-NGdfEyclZKnTz7elGDx1zCnhmFLCRq1Ei812gWN8j_Ce-Jv0ZRUJ0rbmYmcW5Tw3MaTJMZ5rAH1dQBzAKES0tA49Xe67Tfm3yJh37q1DO127iI6qZ7RL9a1WQxpyDMrIg84hEw4WIwikT1UeKbh5AWoLNeUc6MAjH7ITdpv-YVZnQXzu6KVyNonaPTJiMWaF3gUSQu4PE15d1XwW9yNT-UMdpelWewR_ttXB3oyf-0000]--></g></svg>