<svg xmlns="http://www.w3.org/2000/svg" xmlns:xlink="http://www.w3.org/1999/xlink" contentStyleType="text/css" data-diagram-type="SEQUENCE" height="698px" preserveAspectRatio="none" style="width:519px;height:698px;background:#FFFFFF;" version="1.1" viewBox="0 0 519 698" width="519px" zoomAndPan="magnify"><title>DCT (Discrete Cosine Transform) Method</title><defs/><g><text fill="#000000" font-family="sans-serif" font-size="14" font-weight="bold" lengthAdjust="spacing" textLength="274.5859" x="129.3418" y="29.5332">DCT (Discrete Cosine Transform) Method</text><g><title>DCT Method</title><rect fill="#FFFFFF" height="543.1094" style="stroke:#181818;stroke-width:1;" width="10" x="271.3115" y="108.5703"/></g><rect fill="none" height="404.0547" style="stroke:#000000;stroke-width:1.5;" width="441.2104" x="10" y="240.625"/><g><title>JPEG Image</title><rect fill="#000000" fill-opacity="0.00000" height="585.4609" width="8" x="62.6826" y="76.2188"/><line style="stroke:#181818;stroke-width:0.5;stroke-dasharray:5.0,5.0;" x1="66" x2="66" y1="76.2188" y2="661.6797"/></g><g><title>Data</title><rect fill="#000000" fill-opacity="0.00000" height="585.4609" width="8" x="141.1514" y="76.2188"/><line style="stroke:#181818;stroke-width:0.5;stroke-dasharray:5.0,5.0;" x1="144.3652" x2="144.3652" y1="76.2188" y2="661.6797"/></g><g><title>DCT Method</title><rect fill="#000000" fill-opacity="0.00000" height="585.4609" width="8" x="272.3115" y="76.2188"/><line style="stroke:#181818;stroke-width:0.5;stroke-dasharray:5.0,5.0;" x1="275.6323" x2="275.6323" y1="76.2188" y2="661.6797"/></g><g class="participant participant-head" data-participant="Image"><rect fill="#E2E2F0" height="31.6094" rx="2.5" ry="2.5" style="stroke:#181818;stroke-width:0.5;" width="93.3652" x="20" y="43.6094"/><text fill="#000000" font-family="sans-serif" font-size="14" lengthAdjust="spacing" textLength="79.3652" x="27" y="65.1426">JPEG Image</text></g><g class="participant participant-tail" data-participant="Image"><rect fill="#E2E2F0" height="31.6094" rx="2.5" ry="2.5" style="stroke:#181818;stroke-width:0.5;" width="93.3652" x="20" y="660.6797"/><text fill="#000000" font-family="sans-serif" font-size="14" lengthAdjust="spacing" textLength="79.3652" x="27" y="682.2129">JPEG Image</text></g><g class="participant participant-head" data-participant="Data"><rect fill="#E2E2F0" height="31.6094" rx="2.5" ry="2.5" style="stroke:#181818;stroke-width:0.5;" width="43.5723" x="123.3652" y="43.6094"/><text fill="#000000" font-family="sans-serif" font-size="14" lengthAdjust="spacing" textLength="29.5723" x="130.3652" y="65.1426">Data</text></g><g class="participant participant-tail" data-participant="Data"><rect fill="#E2E2F0" height="31.6094" rx="2.5" ry="2.5" style="stroke:#181818;stroke-width:0.5;" width="43.5723" x="123.3652" y="660.6797"/><text fill="#000000" font-family="sans-serif" font-size="14" lengthAdjust="spacing" textLength="29.5723" x="130.3652" y="682.2129">Data</text></g><g class="participant participant-head" data-participant="DCT"><rect fill="#E2E2F0" height="31.6094" rx="2.5" ry="2.5" style="stroke:#181818;stroke-width:0.5;" width="93.3584" x="229.6323" y="43.6094"/><text fill="#000000" font-family="sans-serif" font-size="14" lengthAdjust="spacing" textLength="79.3584" x="236.6323" y="65.1426">DCT Method</text></g><g class="participant participant-tail" data-participant="DCT"><rect fill="#E2E2F0" height="31.6094" rx="2.5" ry="2.5" style="stroke:#181818;stroke-width:0.5;" width="93.3584" x="229.6323" y="660.6797"/><text fill="#000000" font-family="sans-serif" font-size="14" lengthAdjust="spacing" textLength="79.3584" x="236.6323" y="682.2129">DCT Method</text></g><g><title>DCT Method</title><rect fill="#FFFFFF" height="543.1094" style="stroke:#181818;stroke-width:1;" width="10" x="271.3115" y="108.5703"/></g><g class="message" data-participant-1="Data" data-participant-2="DCT"><polygon fill="#181818" points="259.3115,104.5703,269.3115,108.5703,259.3115,112.5703,263.3115,108.5703" style="stroke:#181818;stroke-width:1;"/><line style="stroke:#181818;stroke-width:1;" x1="145.1514" x2="265.3115" y1="108.5703" y2="108.5703"/><text fill="#000000" font-family="sans-serif" font-size="13" lengthAdjust="spacing" textLength="81.6689" x="152.1514" y="103.7139">Input data bits</text></g><g class="message" data-participant-1="Image" data-participant-2="DCT"><polygon fill="#181818" points="259.3115,134.9219,269.3115,138.9219,259.3115,142.9219,263.3115,138.9219" style="stroke:#181818;stroke-width:1;"/><line style="stroke:#181818;stroke-width:1;" x1="66.6826" x2="265.3115" y1="138.9219" y2="138.9219"/><text fill="#000000" font-family="sans-serif" font-size="13" lengthAdjust="spacing" textLength="105.498" x="73.6826" y="134.0654">Input JPEG image</text></g><g class="message" data-participant-1="DCT" data-participant-2="DCT"><line style="stroke:#181818;stroke-width:1;" x1="281.3115" x2="323.3115" y1="169.2734" y2="169.2734"/><line style="stroke:#181818;stroke-width:1;" x1="323.3115" x2="323.3115" y1="169.2734" y2="182.2734"/><line style="stroke:#181818;stroke-width:1;" x1="282.3115" x2="323.3115" y1="182.2734" y2="182.2734"/><polygon fill="#181818" points="292.3115,178.2734,282.3115,182.2734,292.3115,186.2734,288.3115,182.2734" style="stroke:#181818;stroke-width:1;"/><text fill="#000000" font-family="sans-serif" font-size="13" lengthAdjust="spacing" textLength="223.958" x="288.3115" y="164.417">Decompress JPEG to DCT coefficients</text></g><g class="message" data-participant-1="DCT" data-participant-2="DCT"><line style="stroke:#181818;stroke-width:1;" x1="281.3115" x2="323.3115" y1="212.625" y2="212.625"/><line style="stroke:#181818;stroke-width:1;" x1="323.3115" x2="323.3115" y1="212.625" y2="225.625"/><line style="stroke:#181818;stroke-width:1;" x1="282.3115" x2="323.3115" y1="225.625" y2="225.625"/><polygon fill="#181818" points="292.3115,221.625,282.3115,225.625,292.3115,229.625,288.3115,225.625" style="stroke:#181818;stroke-width:1;"/><text fill="#000000" font-family="sans-serif" font-size="13" lengthAdjust="spacing" textLength="137.2935" x="288.3115" y="207.7686">Process each 8x8 block</text></g><path d="M10,240.625 L70.1709,240.625 L70.1709,248.9766 L60.1709,258.9766 L10,258.9766 L10,240.625" fill="#EEEEEE" style="stroke:#000000;stroke-width:1.5;"/><rect fill="none" height="404.0547" style="stroke:#000000;stroke-width:1.5;" width="441.2104" x="10" y="240.625"/><text fill="#000000" font-family="sans-serif" font-size="13" font-weight="bold" lengthAdjust="spacing" textLength="15.1709" x="25" y="255.1201">alt</text><text fill="#000000" font-family="sans-serif" font-size="11" font-weight="bold" lengthAdjust="spacing" textLength="67.2139" x="85.1709" y="254.0439">[Embedding]</text><g class="message" data-participant-1="DCT" data-participant-2="DCT"><line style="stroke:#181818;stroke-width:1;" x1="281.3115" x2="323.3115" y1="281.3281" y2="281.3281"/><line style="stroke:#181818;stroke-width:1;" x1="323.3115" x2="323.3115" y1="281.3281" y2="294.3281"/><line style="stroke:#181818;stroke-width:1;" x1="282.3115" x2="323.3115" y1="294.3281" y2="294.3281"/><polygon fill="#181818" points="292.3115,290.3281,282.3115,294.3281,292.3115,298.3281,288.3115,294.3281" style="stroke:#181818;stroke-width:1;"/><text fill="#000000" font-family="sans-serif" font-size="13" lengthAdjust="spacing" textLength="88.1499" x="288.3115" y="276.4717">Check capacity</text></g><g class="message" data-participant-1="DCT" data-participant-2="DCT"><line style="stroke:#181818;stroke-width:1;" x1="281.3115" x2="323.3115" y1="341.0313" y2="341.0313"/><line style="stroke:#181818;stroke-width:1;" x1="323.3115" x2="323.3115" y1="341.0313" y2="354.0313"/><line style="stroke:#181818;stroke-width:1;" x1="282.3115" x2="323.3115" y1="354.0313" y2="354.0313"/><polygon fill="#181818" points="292.3115,350.0313,282.3115,354.0313,292.3115,358.0313,288.3115,354.0313" style="stroke:#181818;stroke-width:1;"/><text fill="#000000" font-family="sans-serif" font-size="13" lengthAdjust="spacing" textLength="137.2617" x="288.3115" y="319.8232">Modify DCT coefficients</text><text fill="#000000" font-family="sans-serif" font-size="13" lengthAdjust="spacing" textLength="140.8989" x="288.3115" y="336.1748">using QIM-like approach</text></g><g class="message" data-participant-1="DCT" data-participant-2="DCT"><line style="stroke:#181818;stroke-width:1;" x1="281.3115" x2="323.3115" y1="384.3828" y2="384.3828"/><line style="stroke:#181818;stroke-width:1;" x1="323.3115" x2="323.3115" y1="384.3828" y2="397.3828"/><line style="stroke:#181818;stroke-width:1;" x1="282.3115" x2="323.3115" y1="397.3828" y2="397.3828"/><polygon fill="#181818" points="292.3115,393.3828,282.3115,397.3828,292.3115,401.3828,288.3115,397.3828" style="stroke:#181818;stroke-width:1;"/><text fill="#000000" font-family="sans-serif" font-size="13" lengthAdjust="spacing" textLength="122.8335" x="288.3115" y="379.5264">Skip zero coefficients</text></g><g class="message" data-participant-1="DCT" data-participant-2="Image"><polygon fill="#181818" points="77.6826,440.0859,67.6826,444.0859,77.6826,448.0859,73.6826,444.0859" style="stroke:#181818;stroke-width:1;"/><line style="stroke:#181818;stroke-width:1;" x1="71.6826" x2="270.3115" y1="444.0859" y2="444.0859"/><text fill="#000000" font-family="sans-serif" font-size="13" lengthAdjust="spacing" textLength="180.6289" x="83.6826" y="422.8779">Compress modified coefficients</text><text fill="#000000" font-family="sans-serif" font-size="13" lengthAdjust="spacing" textLength="48.4072" x="83.6826" y="439.2295">to JPEG</text></g><line style="stroke:#000000;stroke-width:1;stroke-dasharray:2.0,2.0;" x1="10" x2="451.2104" y1="453.0859" y2="453.0859"/><text fill="#000000" font-family="sans-serif" font-size="11" font-weight="bold" lengthAdjust="spacing" textLength="61.1177" x="15" y="464.5049">[Extraction]</text><g class="message" data-participant-1="DCT" data-participant-2="DCT"><line style="stroke:#181818;stroke-width:1;" x1="281.3115" x2="323.3115" y1="490.2734" y2="490.2734"/><line style="stroke:#181818;stroke-width:1;" x1="323.3115" x2="323.3115" y1="490.2734" y2="503.2734"/><line style="stroke:#181818;stroke-width:1;" x1="282.3115" x2="323.3115" y1="503.2734" y2="503.2734"/><polygon fill="#181818" points="292.3115,499.2734,282.3115,503.2734,292.3115,507.2734,288.3115,503.2734" style="stroke:#181818;stroke-width:1;"/><text fill="#000000" font-family="sans-serif" font-size="13" lengthAdjust="spacing" textLength="75.1689" x="288.3115" y="485.417">Read header</text></g><g class="message" data-participant-1="DCT" data-participant-2="DCT"><line style="stroke:#181818;stroke-width:1;" x1="281.3115" x2="323.3115" y1="549.9766" y2="549.9766"/><line style="stroke:#181818;stroke-width:1;" x1="323.3115" x2="323.3115" y1="549.9766" y2="562.9766"/><line style="stroke:#181818;stroke-width:1;" x1="282.3115" x2="323.3115" y1="562.9766" y2="562.9766"/><polygon fill="#181818" points="292.3115,558.9766,282.3115,562.9766,292.3115,566.9766,288.3115,562.9766" style="stroke:#181818;stroke-width:1;"/><text fill="#000000" font-family="sans-serif" font-size="13" lengthAdjust="spacing" textLength="98.979" x="288.3115" y="528.7686">Extract data from</text><text fill="#000000" font-family="sans-serif" font-size="13" lengthAdjust="spacing" textLength="95.3608" x="288.3115" y="545.1201">DCT coefficients</text></g><g class="message" data-participant-1="DCT" data-participant-2="DCT"><line style="stroke:#181818;stroke-width:1;" x1="281.3115" x2="323.3115" y1="593.3281" y2="593.3281"/><line style="stroke:#181818;stroke-width:1;" x1="323.3115" x2="323.3115" y1="593.3281" y2="606.3281"/><line style="stroke:#181818;stroke-width:1;" x1="282.3115" x2="323.3115" y1="606.3281" y2="606.3281"/><polygon fill="#181818" points="292.3115,602.3281,282.3115,606.3281,292.3115,610.3281,288.3115,606.3281" style="stroke:#181818;stroke-width:1;"/><text fill="#000000" font-family="sans-serif" font-size="13" lengthAdjust="spacing" textLength="122.8335" x="288.3115" y="588.4717">Skip zero coefficients</text></g><g class="message" data-participant-1="DCT" data-participant-2="Data"><polygon fill="#181818" points="156.1514,632.6797,146.1514,636.6797,156.1514,640.6797,152.1514,636.6797" style="stroke:#181818;stroke-width:1;"/><line style="stroke:#181818;stroke-width:1;" x1="150.1514" x2="270.3115" y1="636.6797" y2="636.6797"/><text fill="#000000" font-family="sans-serif" font-size="13" lengthAdjust="spacing" textLength="67.2026" x="162.1514" y="631.8232">Save as file</text></g><!--SRC=[bLAnRi8m4Dtz5IUcTc1735qIL549YRQCB8Tz8QSajcKV2FhrjPqY0PdgmNBodk-zUsTXwGdgQWSlDKSTI0Wg5zaIx0BQsBWmlCA6f7L6AOz1MBD7Ap3xsAxUOJtWaMQ0SJmzCceKB5W-F459SQmw4ggTKfa5yxVyiOIrzIS1atyTMA92BNn6ALvLqNgY5ZjSJAXS_ORMfDtW0yKuKiILThMZfabsoARYz_njS3gJ2NKBYyi23htJdLBO2wo60nd3zgWWhVjRLKkw0uqUDSjr0c-SuUOw4TxRKuhw29_hpRpdZW2z3ou9JmfyT-pXXu9xD7v7Avaa8xTcXop9P9u4K_iv1aLz95XT9EHWdPq8VX4QQDD6OOBzNHkdqmGtxEqaqlytaCUVU7Yc_28QxacHJO_EqCFiVm40]--></g></svg>